<mxfile host="app.diagrams.net" modified="2020-04-23T06:08:07.146Z" agent="Mozilla/5.0 (Windows NT 6.1; Win64; x64) AppleWebKit/537.36 (KHTML, like Gecko) Chrome/81.0.4044.113 Safari/537.36" etag="41GcRq7XML9dX82LITCh" version="12.8.8" type="github">
  <diagram id="ckR6-xcQiySAsiwtbq-Z" name="Page-1">
    <mxGraphModel dx="1616" dy="522" grid="1" gridSize="10" guides="1" tooltips="1" connect="1" arrows="1" fold="1" page="1" pageScale="1" pageWidth="850" pageHeight="1100" math="0" shadow="0">
      <root>
        <mxCell id="0" />
        <mxCell id="1" parent="0" />
        <mxCell id="0APCHjPo9MJvBpzUKBgA-36" style="edgeStyle=orthogonalEdgeStyle;rounded=0;orthogonalLoop=1;jettySize=auto;html=1;" parent="1" source="0APCHjPo9MJvBpzUKBgA-1" target="0APCHjPo9MJvBpzUKBgA-6" edge="1">
          <mxGeometry relative="1" as="geometry">
            <Array as="points">
              <mxPoint x="440" y="130" />
              <mxPoint x="40" y="130" />
            </Array>
          </mxGeometry>
        </mxCell>
        <mxCell id="0APCHjPo9MJvBpzUKBgA-44" style="edgeStyle=orthogonalEdgeStyle;rounded=0;orthogonalLoop=1;jettySize=auto;html=1;entryX=0.5;entryY=0;entryDx=0;entryDy=0;" parent="1" target="0APCHjPo9MJvBpzUKBgA-2" edge="1">
          <mxGeometry relative="1" as="geometry">
            <mxPoint x="390" y="130" as="sourcePoint" />
          </mxGeometry>
        </mxCell>
        <mxCell id="0APCHjPo9MJvBpzUKBgA-78" style="edgeStyle=orthogonalEdgeStyle;rounded=0;orthogonalLoop=1;jettySize=auto;html=1;" parent="1" source="0APCHjPo9MJvBpzUKBgA-1" target="0APCHjPo9MJvBpzUKBgA-5" edge="1">
          <mxGeometry relative="1" as="geometry">
            <Array as="points">
              <mxPoint x="440" y="130" />
              <mxPoint x="780" y="130" />
            </Array>
          </mxGeometry>
        </mxCell>
        <mxCell id="0APCHjPo9MJvBpzUKBgA-90" style="edgeStyle=orthogonalEdgeStyle;rounded=0;orthogonalLoop=1;jettySize=auto;html=1;exitX=0.75;exitY=1;exitDx=0;exitDy=0;" parent="1" source="0APCHjPo9MJvBpzUKBgA-1" target="0APCHjPo9MJvBpzUKBgA-4" edge="1">
          <mxGeometry relative="1" as="geometry">
            <Array as="points">
              <mxPoint x="440" y="90" />
              <mxPoint x="440" y="130" />
              <mxPoint x="1020" y="130" />
            </Array>
          </mxGeometry>
        </mxCell>
        <mxCell id="0APCHjPo9MJvBpzUKBgA-96" style="edgeStyle=orthogonalEdgeStyle;rounded=0;orthogonalLoop=1;jettySize=auto;html=1;" parent="1" source="0APCHjPo9MJvBpzUKBgA-1" target="0APCHjPo9MJvBpzUKBgA-3" edge="1">
          <mxGeometry relative="1" as="geometry">
            <Array as="points">
              <mxPoint x="440" y="130" />
              <mxPoint x="1280" y="130" />
            </Array>
          </mxGeometry>
        </mxCell>
        <mxCell id="0APCHjPo9MJvBpzUKBgA-106" style="edgeStyle=orthogonalEdgeStyle;rounded=0;orthogonalLoop=1;jettySize=auto;html=1;entryX=0.5;entryY=0;entryDx=0;entryDy=0;" parent="1" source="0APCHjPo9MJvBpzUKBgA-1" target="0APCHjPo9MJvBpzUKBgA-105" edge="1">
          <mxGeometry relative="1" as="geometry">
            <Array as="points">
              <mxPoint x="440" y="130" />
              <mxPoint x="-350" y="130" />
            </Array>
          </mxGeometry>
        </mxCell>
        <mxCell id="0APCHjPo9MJvBpzUKBgA-127" style="edgeStyle=orthogonalEdgeStyle;rounded=0;orthogonalLoop=1;jettySize=auto;html=1;entryX=0.5;entryY=0;entryDx=0;entryDy=0;" parent="1" source="0APCHjPo9MJvBpzUKBgA-1" target="0APCHjPo9MJvBpzUKBgA-115" edge="1">
          <mxGeometry relative="1" as="geometry">
            <Array as="points">
              <mxPoint x="440" y="130" />
              <mxPoint x="1540" y="130" />
            </Array>
          </mxGeometry>
        </mxCell>
        <mxCell id="0APCHjPo9MJvBpzUKBgA-1" value="Dynamic Website" style="rounded=0;whiteSpace=wrap;html=1;" parent="1" vertex="1">
          <mxGeometry x="380" y="30" width="120" height="60" as="geometry" />
        </mxCell>
        <mxCell id="0APCHjPo9MJvBpzUKBgA-51" style="edgeStyle=orthogonalEdgeStyle;rounded=0;orthogonalLoop=1;jettySize=auto;html=1;entryX=0;entryY=0.5;entryDx=0;entryDy=0;" parent="1" source="0APCHjPo9MJvBpzUKBgA-2" target="0APCHjPo9MJvBpzUKBgA-40" edge="1">
          <mxGeometry relative="1" as="geometry">
            <Array as="points">
              <mxPoint x="405" y="530" />
            </Array>
          </mxGeometry>
        </mxCell>
        <mxCell id="0APCHjPo9MJvBpzUKBgA-52" style="edgeStyle=orthogonalEdgeStyle;rounded=0;orthogonalLoop=1;jettySize=auto;html=1;entryX=0;entryY=0.5;entryDx=0;entryDy=0;" parent="1" source="0APCHjPo9MJvBpzUKBgA-2" target="0APCHjPo9MJvBpzUKBgA-41" edge="1">
          <mxGeometry relative="1" as="geometry">
            <Array as="points">
              <mxPoint x="405" y="610" />
            </Array>
          </mxGeometry>
        </mxCell>
        <mxCell id="0APCHjPo9MJvBpzUKBgA-53" style="edgeStyle=orthogonalEdgeStyle;rounded=0;orthogonalLoop=1;jettySize=auto;html=1;entryX=0;entryY=0.5;entryDx=0;entryDy=0;" parent="1" source="0APCHjPo9MJvBpzUKBgA-2" target="0APCHjPo9MJvBpzUKBgA-37" edge="1">
          <mxGeometry relative="1" as="geometry">
            <Array as="points">
              <mxPoint x="405" y="280" />
            </Array>
          </mxGeometry>
        </mxCell>
        <mxCell id="0APCHjPo9MJvBpzUKBgA-54" style="edgeStyle=orthogonalEdgeStyle;rounded=0;orthogonalLoop=1;jettySize=auto;html=1;entryX=0;entryY=0.5;entryDx=0;entryDy=0;" parent="1" source="0APCHjPo9MJvBpzUKBgA-2" target="0APCHjPo9MJvBpzUKBgA-38" edge="1">
          <mxGeometry relative="1" as="geometry">
            <Array as="points">
              <mxPoint x="405" y="370" />
            </Array>
          </mxGeometry>
        </mxCell>
        <mxCell id="0APCHjPo9MJvBpzUKBgA-55" style="edgeStyle=orthogonalEdgeStyle;rounded=0;orthogonalLoop=1;jettySize=auto;html=1;entryX=0;entryY=0.5;entryDx=0;entryDy=0;" parent="1" source="0APCHjPo9MJvBpzUKBgA-2" target="0APCHjPo9MJvBpzUKBgA-39" edge="1">
          <mxGeometry relative="1" as="geometry">
            <Array as="points">
              <mxPoint x="405" y="450" />
            </Array>
          </mxGeometry>
        </mxCell>
        <mxCell id="0APCHjPo9MJvBpzUKBgA-56" style="edgeStyle=orthogonalEdgeStyle;rounded=0;orthogonalLoop=1;jettySize=auto;html=1;entryX=0;entryY=0.5;entryDx=0;entryDy=0;" parent="1" source="0APCHjPo9MJvBpzUKBgA-2" target="0APCHjPo9MJvBpzUKBgA-42" edge="1">
          <mxGeometry relative="1" as="geometry">
            <Array as="points">
              <mxPoint x="405" y="690" />
            </Array>
          </mxGeometry>
        </mxCell>
        <mxCell id="0APCHjPo9MJvBpzUKBgA-57" style="edgeStyle=orthogonalEdgeStyle;rounded=0;orthogonalLoop=1;jettySize=auto;html=1;entryX=0;entryY=0.5;entryDx=0;entryDy=0;" parent="1" source="0APCHjPo9MJvBpzUKBgA-2" target="0APCHjPo9MJvBpzUKBgA-43" edge="1">
          <mxGeometry relative="1" as="geometry">
            <Array as="points">
              <mxPoint x="405" y="780" />
            </Array>
          </mxGeometry>
        </mxCell>
        <mxCell id="0APCHjPo9MJvBpzUKBgA-2" value="About US&amp;nbsp;" style="rounded=0;whiteSpace=wrap;html=1;" parent="1" vertex="1">
          <mxGeometry x="350" y="160" width="120" height="60" as="geometry" />
        </mxCell>
        <mxCell id="0APCHjPo9MJvBpzUKBgA-98" style="edgeStyle=orthogonalEdgeStyle;rounded=0;orthogonalLoop=1;jettySize=auto;html=1;entryX=0;entryY=0.5;entryDx=0;entryDy=0;" parent="1" source="0APCHjPo9MJvBpzUKBgA-3" target="0APCHjPo9MJvBpzUKBgA-97" edge="1">
          <mxGeometry relative="1" as="geometry" />
        </mxCell>
        <mxCell id="0APCHjPo9MJvBpzUKBgA-100" style="edgeStyle=orthogonalEdgeStyle;rounded=0;orthogonalLoop=1;jettySize=auto;html=1;entryX=0;entryY=0.5;entryDx=0;entryDy=0;" parent="1" source="0APCHjPo9MJvBpzUKBgA-3" target="0APCHjPo9MJvBpzUKBgA-99" edge="1">
          <mxGeometry relative="1" as="geometry" />
        </mxCell>
        <mxCell id="0APCHjPo9MJvBpzUKBgA-102" style="edgeStyle=orthogonalEdgeStyle;rounded=0;orthogonalLoop=1;jettySize=auto;html=1;entryX=0;entryY=0.5;entryDx=0;entryDy=0;" parent="1" source="0APCHjPo9MJvBpzUKBgA-3" target="0APCHjPo9MJvBpzUKBgA-101" edge="1">
          <mxGeometry relative="1" as="geometry" />
        </mxCell>
        <mxCell id="0APCHjPo9MJvBpzUKBgA-104" style="edgeStyle=orthogonalEdgeStyle;rounded=0;orthogonalLoop=1;jettySize=auto;html=1;exitX=0.5;exitY=1;exitDx=0;exitDy=0;entryX=0;entryY=0.5;entryDx=0;entryDy=0;" parent="1" source="0APCHjPo9MJvBpzUKBgA-3" target="0APCHjPo9MJvBpzUKBgA-103" edge="1">
          <mxGeometry relative="1" as="geometry" />
        </mxCell>
        <mxCell id="0APCHjPo9MJvBpzUKBgA-3" value="Services&amp;nbsp;" style="rounded=0;whiteSpace=wrap;html=1;" parent="1" vertex="1">
          <mxGeometry x="1220" y="150" width="120" height="60" as="geometry" />
        </mxCell>
        <mxCell id="0APCHjPo9MJvBpzUKBgA-93" style="edgeStyle=orthogonalEdgeStyle;rounded=0;orthogonalLoop=1;jettySize=auto;html=1;entryX=0;entryY=0.5;entryDx=0;entryDy=0;" parent="1" source="0APCHjPo9MJvBpzUKBgA-4" target="0APCHjPo9MJvBpzUKBgA-91" edge="1">
          <mxGeometry relative="1" as="geometry" />
        </mxCell>
        <mxCell id="0APCHjPo9MJvBpzUKBgA-95" style="edgeStyle=orthogonalEdgeStyle;rounded=0;orthogonalLoop=1;jettySize=auto;html=1;exitX=0.5;exitY=1;exitDx=0;exitDy=0;entryX=0;entryY=0.5;entryDx=0;entryDy=0;" parent="1" source="0APCHjPo9MJvBpzUKBgA-4" target="0APCHjPo9MJvBpzUKBgA-94" edge="1">
          <mxGeometry relative="1" as="geometry" />
        </mxCell>
        <mxCell id="0APCHjPo9MJvBpzUKBgA-4" value="Our Clients&amp;nbsp;" style="rounded=0;whiteSpace=wrap;html=1;" parent="1" vertex="1">
          <mxGeometry x="960" y="150" width="120" height="60" as="geometry" />
        </mxCell>
        <mxCell id="0APCHjPo9MJvBpzUKBgA-83" style="edgeStyle=orthogonalEdgeStyle;rounded=0;orthogonalLoop=1;jettySize=auto;html=1;entryX=0;entryY=0.5;entryDx=0;entryDy=0;" parent="1" source="0APCHjPo9MJvBpzUKBgA-5" target="0APCHjPo9MJvBpzUKBgA-79" edge="1">
          <mxGeometry relative="1" as="geometry" />
        </mxCell>
        <mxCell id="0APCHjPo9MJvBpzUKBgA-84" style="edgeStyle=orthogonalEdgeStyle;rounded=0;orthogonalLoop=1;jettySize=auto;html=1;exitX=0.5;exitY=1;exitDx=0;exitDy=0;entryX=0;entryY=0.5;entryDx=0;entryDy=0;" parent="1" source="0APCHjPo9MJvBpzUKBgA-5" target="0APCHjPo9MJvBpzUKBgA-80" edge="1">
          <mxGeometry relative="1" as="geometry" />
        </mxCell>
        <mxCell id="0APCHjPo9MJvBpzUKBgA-85" style="edgeStyle=orthogonalEdgeStyle;rounded=0;orthogonalLoop=1;jettySize=auto;html=1;entryX=0;entryY=0.5;entryDx=0;entryDy=0;" parent="1" source="0APCHjPo9MJvBpzUKBgA-5" target="0APCHjPo9MJvBpzUKBgA-81" edge="1">
          <mxGeometry relative="1" as="geometry" />
        </mxCell>
        <mxCell id="0APCHjPo9MJvBpzUKBgA-86" style="edgeStyle=orthogonalEdgeStyle;rounded=0;orthogonalLoop=1;jettySize=auto;html=1;entryX=0;entryY=0.5;entryDx=0;entryDy=0;" parent="1" source="0APCHjPo9MJvBpzUKBgA-5" target="0APCHjPo9MJvBpzUKBgA-82" edge="1">
          <mxGeometry relative="1" as="geometry" />
        </mxCell>
        <mxCell id="0APCHjPo9MJvBpzUKBgA-89" style="edgeStyle=orthogonalEdgeStyle;rounded=0;orthogonalLoop=1;jettySize=auto;html=1;entryX=0;entryY=0.5;entryDx=0;entryDy=0;" parent="1" source="0APCHjPo9MJvBpzUKBgA-5" target="0APCHjPo9MJvBpzUKBgA-88" edge="1">
          <mxGeometry relative="1" as="geometry" />
        </mxCell>
        <mxCell id="0APCHjPo9MJvBpzUKBgA-5" value="Contact us&amp;nbsp;" style="rounded=0;whiteSpace=wrap;html=1;" parent="1" vertex="1">
          <mxGeometry x="720" y="160" width="120" height="60" as="geometry" />
        </mxCell>
        <mxCell id="0APCHjPo9MJvBpzUKBgA-25" style="edgeStyle=orthogonalEdgeStyle;rounded=0;orthogonalLoop=1;jettySize=auto;html=1;entryX=0;entryY=0.5;entryDx=0;entryDy=0;" parent="1" source="0APCHjPo9MJvBpzUKBgA-6" target="0APCHjPo9MJvBpzUKBgA-9" edge="1">
          <mxGeometry relative="1" as="geometry" />
        </mxCell>
        <mxCell id="0APCHjPo9MJvBpzUKBgA-26" style="edgeStyle=orthogonalEdgeStyle;rounded=0;orthogonalLoop=1;jettySize=auto;html=1;entryX=0;entryY=0.5;entryDx=0;entryDy=0;" parent="1" source="0APCHjPo9MJvBpzUKBgA-6" target="0APCHjPo9MJvBpzUKBgA-10" edge="1">
          <mxGeometry relative="1" as="geometry" />
        </mxCell>
        <mxCell id="0APCHjPo9MJvBpzUKBgA-27" style="edgeStyle=orthogonalEdgeStyle;rounded=0;orthogonalLoop=1;jettySize=auto;html=1;entryX=0;entryY=0.5;entryDx=0;entryDy=0;" parent="1" source="0APCHjPo9MJvBpzUKBgA-6" target="0APCHjPo9MJvBpzUKBgA-13" edge="1">
          <mxGeometry relative="1" as="geometry" />
        </mxCell>
        <mxCell id="0APCHjPo9MJvBpzUKBgA-28" style="edgeStyle=orthogonalEdgeStyle;rounded=0;orthogonalLoop=1;jettySize=auto;html=1;entryX=0;entryY=0.5;entryDx=0;entryDy=0;" parent="1" source="0APCHjPo9MJvBpzUKBgA-6" target="0APCHjPo9MJvBpzUKBgA-14" edge="1">
          <mxGeometry relative="1" as="geometry" />
        </mxCell>
        <mxCell id="0APCHjPo9MJvBpzUKBgA-29" style="edgeStyle=orthogonalEdgeStyle;rounded=0;orthogonalLoop=1;jettySize=auto;html=1;exitX=0.5;exitY=1;exitDx=0;exitDy=0;entryX=0;entryY=0.5;entryDx=0;entryDy=0;" parent="1" source="0APCHjPo9MJvBpzUKBgA-6" target="0APCHjPo9MJvBpzUKBgA-24" edge="1">
          <mxGeometry relative="1" as="geometry" />
        </mxCell>
        <mxCell id="0APCHjPo9MJvBpzUKBgA-31" style="edgeStyle=orthogonalEdgeStyle;rounded=0;orthogonalLoop=1;jettySize=auto;html=1;entryX=0;entryY=0.5;entryDx=0;entryDy=0;" parent="1" source="0APCHjPo9MJvBpzUKBgA-6" target="0APCHjPo9MJvBpzUKBgA-30" edge="1">
          <mxGeometry relative="1" as="geometry" />
        </mxCell>
        <mxCell id="0APCHjPo9MJvBpzUKBgA-34" style="edgeStyle=orthogonalEdgeStyle;rounded=0;orthogonalLoop=1;jettySize=auto;html=1;entryX=0;entryY=0.5;entryDx=0;entryDy=0;" parent="1" source="0APCHjPo9MJvBpzUKBgA-6" target="0APCHjPo9MJvBpzUKBgA-32" edge="1">
          <mxGeometry relative="1" as="geometry" />
        </mxCell>
        <mxCell id="0APCHjPo9MJvBpzUKBgA-35" style="edgeStyle=orthogonalEdgeStyle;rounded=0;orthogonalLoop=1;jettySize=auto;html=1;entryX=0;entryY=0.5;entryDx=0;entryDy=0;" parent="1" source="0APCHjPo9MJvBpzUKBgA-6" target="0APCHjPo9MJvBpzUKBgA-33" edge="1">
          <mxGeometry relative="1" as="geometry" />
        </mxCell>
        <mxCell id="0APCHjPo9MJvBpzUKBgA-6" value="Blog" style="rounded=0;whiteSpace=wrap;html=1;" parent="1" vertex="1">
          <mxGeometry x="-10" y="160" width="120" height="60" as="geometry" />
        </mxCell>
        <mxCell id="0APCHjPo9MJvBpzUKBgA-9" value="Search Function&amp;nbsp;" style="rounded=0;whiteSpace=wrap;html=1;" parent="1" vertex="1">
          <mxGeometry x="70" y="260" width="120" height="60" as="geometry" />
        </mxCell>
        <mxCell id="0APCHjPo9MJvBpzUKBgA-10" value="Post Categories&amp;nbsp;" style="rounded=0;whiteSpace=wrap;html=1;" parent="1" vertex="1">
          <mxGeometry x="70" y="350" width="120" height="60" as="geometry" />
        </mxCell>
        <mxCell id="0APCHjPo9MJvBpzUKBgA-16" value="" style="edgeStyle=orthogonalEdgeStyle;rounded=0;orthogonalLoop=1;jettySize=auto;html=1;" parent="1" source="0APCHjPo9MJvBpzUKBgA-13" target="0APCHjPo9MJvBpzUKBgA-15" edge="1">
          <mxGeometry relative="1" as="geometry" />
        </mxCell>
        <mxCell id="0APCHjPo9MJvBpzUKBgA-17" style="edgeStyle=orthogonalEdgeStyle;rounded=0;orthogonalLoop=1;jettySize=auto;html=1;entryX=0;entryY=0.5;entryDx=0;entryDy=0;" parent="1" source="0APCHjPo9MJvBpzUKBgA-13" target="0APCHjPo9MJvBpzUKBgA-18" edge="1">
          <mxGeometry relative="1" as="geometry">
            <mxPoint x="250" y="520" as="targetPoint" />
          </mxGeometry>
        </mxCell>
        <mxCell id="0APCHjPo9MJvBpzUKBgA-21" style="edgeStyle=orthogonalEdgeStyle;rounded=0;orthogonalLoop=1;jettySize=auto;html=1;entryX=0;entryY=0.5;entryDx=0;entryDy=0;" parent="1" source="0APCHjPo9MJvBpzUKBgA-13" target="0APCHjPo9MJvBpzUKBgA-19" edge="1">
          <mxGeometry relative="1" as="geometry" />
        </mxCell>
        <mxCell id="0APCHjPo9MJvBpzUKBgA-23" style="edgeStyle=orthogonalEdgeStyle;rounded=0;orthogonalLoop=1;jettySize=auto;html=1;entryX=0;entryY=0.5;entryDx=0;entryDy=0;" parent="1" source="0APCHjPo9MJvBpzUKBgA-13" target="0APCHjPo9MJvBpzUKBgA-22" edge="1">
          <mxGeometry relative="1" as="geometry" />
        </mxCell>
        <mxCell id="0APCHjPo9MJvBpzUKBgA-13" value="Post Page Management&amp;nbsp;" style="rounded=0;whiteSpace=wrap;html=1;" parent="1" vertex="1">
          <mxGeometry x="70" y="830" width="120" height="60" as="geometry" />
        </mxCell>
        <mxCell id="0APCHjPo9MJvBpzUKBgA-15" value="Add Text&amp;nbsp;" style="rounded=0;whiteSpace=wrap;html=1;" parent="1" vertex="1">
          <mxGeometry x="230" y="830" width="120" height="60" as="geometry" />
        </mxCell>
        <mxCell id="0APCHjPo9MJvBpzUKBgA-14" value="Comment and Rating&amp;nbsp;" style="rounded=0;whiteSpace=wrap;html=1;" parent="1" vertex="1">
          <mxGeometry x="70" y="430" width="120" height="60" as="geometry" />
        </mxCell>
        <mxCell id="0APCHjPo9MJvBpzUKBgA-18" value="Add image&amp;nbsp;" style="rounded=0;whiteSpace=wrap;html=1;" parent="1" vertex="1">
          <mxGeometry x="230" y="1060" width="120" height="60" as="geometry" />
        </mxCell>
        <mxCell id="0APCHjPo9MJvBpzUKBgA-19" value="Add link" style="rounded=0;whiteSpace=wrap;html=1;" parent="1" vertex="1">
          <mxGeometry x="230" y="980" width="120" height="60" as="geometry" />
        </mxCell>
        <mxCell id="0APCHjPo9MJvBpzUKBgA-22" value="Add video" style="rounded=0;whiteSpace=wrap;html=1;" parent="1" vertex="1">
          <mxGeometry x="230" y="900" width="120" height="60" as="geometry" />
        </mxCell>
        <mxCell id="0APCHjPo9MJvBpzUKBgA-24" value="Social Media Integration" style="rounded=0;whiteSpace=wrap;html=1;" parent="1" vertex="1">
          <mxGeometry x="70" y="510" width="120" height="60" as="geometry" />
        </mxCell>
        <mxCell id="0APCHjPo9MJvBpzUKBgA-30" value="Next and Previous Features" style="rounded=0;whiteSpace=wrap;html=1;" parent="1" vertex="1">
          <mxGeometry x="70" y="590" width="120" height="60" as="geometry" />
        </mxCell>
        <mxCell id="0APCHjPo9MJvBpzUKBgA-32" value="visitor Statics" style="rounded=0;whiteSpace=wrap;html=1;" parent="1" vertex="1">
          <mxGeometry x="70" y="670" width="120" height="60" as="geometry" />
        </mxCell>
        <mxCell id="0APCHjPo9MJvBpzUKBgA-33" value="Subscribe options" style="rounded=0;whiteSpace=wrap;html=1;" parent="1" vertex="1">
          <mxGeometry x="70" y="750" width="120" height="60" as="geometry" />
        </mxCell>
        <mxCell id="0APCHjPo9MJvBpzUKBgA-37" value="Cover image&amp;nbsp;" style="rounded=0;whiteSpace=wrap;html=1;" parent="1" vertex="1">
          <mxGeometry x="440" y="250" width="120" height="60" as="geometry" />
        </mxCell>
        <mxCell id="0APCHjPo9MJvBpzUKBgA-64" style="edgeStyle=orthogonalEdgeStyle;rounded=0;orthogonalLoop=1;jettySize=auto;html=1;entryX=0;entryY=0.5;entryDx=0;entryDy=0;" parent="1" source="0APCHjPo9MJvBpzUKBgA-38" target="0APCHjPo9MJvBpzUKBgA-60" edge="1">
          <mxGeometry relative="1" as="geometry" />
        </mxCell>
        <mxCell id="0APCHjPo9MJvBpzUKBgA-38" value="Our Vision Section" style="rounded=0;whiteSpace=wrap;html=1;" parent="1" vertex="1">
          <mxGeometry x="440" y="340" width="120" height="60" as="geometry" />
        </mxCell>
        <mxCell id="0APCHjPo9MJvBpzUKBgA-65" style="edgeStyle=orthogonalEdgeStyle;rounded=0;orthogonalLoop=1;jettySize=auto;html=1;entryX=0;entryY=0.5;entryDx=0;entryDy=0;" parent="1" source="0APCHjPo9MJvBpzUKBgA-39" target="0APCHjPo9MJvBpzUKBgA-60" edge="1">
          <mxGeometry relative="1" as="geometry" />
        </mxCell>
        <mxCell id="0APCHjPo9MJvBpzUKBgA-39" value="Our Story Section" style="rounded=0;whiteSpace=wrap;html=1;" parent="1" vertex="1">
          <mxGeometry x="440" y="420" width="120" height="60" as="geometry" />
        </mxCell>
        <mxCell id="0APCHjPo9MJvBpzUKBgA-67" style="edgeStyle=orthogonalEdgeStyle;rounded=0;orthogonalLoop=1;jettySize=auto;html=1;entryX=0;entryY=0.5;entryDx=0;entryDy=0;" parent="1" source="0APCHjPo9MJvBpzUKBgA-40" target="0APCHjPo9MJvBpzUKBgA-66" edge="1">
          <mxGeometry relative="1" as="geometry" />
        </mxCell>
        <mxCell id="0APCHjPo9MJvBpzUKBgA-40" value="Why US" style="rounded=0;whiteSpace=wrap;html=1;" parent="1" vertex="1">
          <mxGeometry x="440" y="500" width="120" height="60" as="geometry" />
        </mxCell>
        <mxCell id="0APCHjPo9MJvBpzUKBgA-69" style="edgeStyle=orthogonalEdgeStyle;rounded=0;orthogonalLoop=1;jettySize=auto;html=1;entryX=0;entryY=0.5;entryDx=0;entryDy=0;" parent="1" source="0APCHjPo9MJvBpzUKBgA-41" target="0APCHjPo9MJvBpzUKBgA-68" edge="1">
          <mxGeometry relative="1" as="geometry" />
        </mxCell>
        <mxCell id="0APCHjPo9MJvBpzUKBgA-41" value="Most important clients&amp;nbsp;" style="rounded=0;whiteSpace=wrap;html=1;" parent="1" vertex="1">
          <mxGeometry x="440" y="580" width="120" height="60" as="geometry" />
        </mxCell>
        <mxCell id="0APCHjPo9MJvBpzUKBgA-71" value="" style="edgeStyle=orthogonalEdgeStyle;rounded=0;orthogonalLoop=1;jettySize=auto;html=1;" parent="1" source="0APCHjPo9MJvBpzUKBgA-42" target="0APCHjPo9MJvBpzUKBgA-70" edge="1">
          <mxGeometry relative="1" as="geometry" />
        </mxCell>
        <mxCell id="0APCHjPo9MJvBpzUKBgA-42" value="Our Team Section" style="rounded=0;whiteSpace=wrap;html=1;" parent="1" vertex="1">
          <mxGeometry x="440" y="660" width="120" height="60" as="geometry" />
        </mxCell>
        <mxCell id="0APCHjPo9MJvBpzUKBgA-73" value="" style="edgeStyle=orthogonalEdgeStyle;rounded=0;orthogonalLoop=1;jettySize=auto;html=1;" parent="1" source="0APCHjPo9MJvBpzUKBgA-43" target="0APCHjPo9MJvBpzUKBgA-72" edge="1">
          <mxGeometry relative="1" as="geometry" />
        </mxCell>
        <mxCell id="0APCHjPo9MJvBpzUKBgA-76" style="edgeStyle=orthogonalEdgeStyle;rounded=0;orthogonalLoop=1;jettySize=auto;html=1;entryX=0;entryY=0.5;entryDx=0;entryDy=0;" parent="1" source="0APCHjPo9MJvBpzUKBgA-43" target="0APCHjPo9MJvBpzUKBgA-74" edge="1">
          <mxGeometry relative="1" as="geometry" />
        </mxCell>
        <mxCell id="0APCHjPo9MJvBpzUKBgA-77" style="edgeStyle=orthogonalEdgeStyle;rounded=0;orthogonalLoop=1;jettySize=auto;html=1;entryX=0;entryY=0.5;entryDx=0;entryDy=0;" parent="1" source="0APCHjPo9MJvBpzUKBgA-43" target="0APCHjPo9MJvBpzUKBgA-75" edge="1">
          <mxGeometry relative="1" as="geometry" />
        </mxCell>
        <mxCell id="0APCHjPo9MJvBpzUKBgA-43" value="Contact info Section" style="rounded=0;whiteSpace=wrap;html=1;" parent="1" vertex="1">
          <mxGeometry x="440" y="750" width="120" height="60" as="geometry" />
        </mxCell>
        <mxCell id="0APCHjPo9MJvBpzUKBgA-63" value="" style="group" parent="1" vertex="1" connectable="0">
          <mxGeometry x="600" y="380" width="120" height="60" as="geometry" />
        </mxCell>
        <mxCell id="0APCHjPo9MJvBpzUKBgA-58" value="Image&amp;nbsp;" style="rounded=0;whiteSpace=wrap;html=1;" parent="0APCHjPo9MJvBpzUKBgA-63" vertex="1">
          <mxGeometry x="70" width="50" height="60" as="geometry" />
        </mxCell>
        <mxCell id="0APCHjPo9MJvBpzUKBgA-60" value="Text&amp;nbsp;" style="rounded=0;whiteSpace=wrap;html=1;" parent="0APCHjPo9MJvBpzUKBgA-63" vertex="1">
          <mxGeometry width="70" height="60" as="geometry" />
        </mxCell>
        <mxCell id="0APCHjPo9MJvBpzUKBgA-66" value="image in background and text as foreground&amp;nbsp;" style="rounded=0;whiteSpace=wrap;html=1;" parent="1" vertex="1">
          <mxGeometry x="600" y="500" width="120" height="60" as="geometry" />
        </mxCell>
        <mxCell id="0APCHjPo9MJvBpzUKBgA-68" value="Slider with n-cards&lt;br&gt;Contain only logo image&amp;nbsp;" style="rounded=0;whiteSpace=wrap;html=1;" parent="1" vertex="1">
          <mxGeometry x="600" y="580" width="120" height="60" as="geometry" />
        </mxCell>
        <mxCell id="0APCHjPo9MJvBpzUKBgA-70" value="slider with n-team Cards" style="rounded=0;whiteSpace=wrap;html=1;" parent="1" vertex="1">
          <mxGeometry x="600" y="660" width="120" height="60" as="geometry" />
        </mxCell>
        <mxCell id="0APCHjPo9MJvBpzUKBgA-72" value="social Media icon" style="rounded=0;whiteSpace=wrap;html=1;" parent="1" vertex="1">
          <mxGeometry x="600" y="750" width="120" height="60" as="geometry" />
        </mxCell>
        <mxCell id="0APCHjPo9MJvBpzUKBgA-74" value="phone / address&amp;nbsp;" style="rounded=0;whiteSpace=wrap;html=1;" parent="1" vertex="1">
          <mxGeometry x="600" y="830" width="120" height="60" as="geometry" />
        </mxCell>
        <mxCell id="0APCHjPo9MJvBpzUKBgA-75" value="Map for Business location" style="rounded=0;whiteSpace=wrap;html=1;" parent="1" vertex="1">
          <mxGeometry x="600" y="910" width="120" height="60" as="geometry" />
        </mxCell>
        <mxCell id="0APCHjPo9MJvBpzUKBgA-79" value="Form&amp;nbsp;" style="rounded=0;whiteSpace=wrap;html=1;" parent="1" vertex="1">
          <mxGeometry x="800" y="330" width="120" height="60" as="geometry" />
        </mxCell>
        <mxCell id="0APCHjPo9MJvBpzUKBgA-80" value="Address&amp;nbsp;" style="rounded=0;whiteSpace=wrap;html=1;" parent="1" vertex="1">
          <mxGeometry x="800" y="410" width="120" height="60" as="geometry" />
        </mxCell>
        <mxCell id="0APCHjPo9MJvBpzUKBgA-81" value="Social Icon" style="rounded=0;whiteSpace=wrap;html=1;" parent="1" vertex="1">
          <mxGeometry x="800" y="490" width="120" height="60" as="geometry" />
        </mxCell>
        <mxCell id="0APCHjPo9MJvBpzUKBgA-82" value="Phone and mail" style="rounded=0;whiteSpace=wrap;html=1;" parent="1" vertex="1">
          <mxGeometry x="800" y="570" width="120" height="60" as="geometry" />
        </mxCell>
        <mxCell id="0APCHjPo9MJvBpzUKBgA-88" value="Company Message&lt;br&gt;Text" style="rounded=0;whiteSpace=wrap;html=1;" parent="1" vertex="1">
          <mxGeometry x="800" y="250" width="120" height="60" as="geometry" />
        </mxCell>
        <mxCell id="0APCHjPo9MJvBpzUKBgA-91" value="images of clients logos&amp;nbsp;" style="rounded=0;whiteSpace=wrap;html=1;" parent="1" vertex="1">
          <mxGeometry x="1040" y="240" width="120" height="60" as="geometry" />
        </mxCell>
        <mxCell id="0APCHjPo9MJvBpzUKBgA-94" value="Clients Reviews" style="rounded=0;whiteSpace=wrap;html=1;" parent="1" vertex="1">
          <mxGeometry x="1040" y="320" width="120" height="60" as="geometry" />
        </mxCell>
        <mxCell id="0APCHjPo9MJvBpzUKBgA-97" value="Cover&amp;nbsp;" style="rounded=0;whiteSpace=wrap;html=1;" parent="1" vertex="1">
          <mxGeometry x="1300" y="240" width="120" height="60" as="geometry" />
        </mxCell>
        <mxCell id="0APCHjPo9MJvBpzUKBgA-99" value="Services Cards&amp;nbsp;" style="rounded=0;whiteSpace=wrap;html=1;" parent="1" vertex="1">
          <mxGeometry x="1300" y="320" width="120" height="60" as="geometry" />
        </mxCell>
        <mxCell id="0APCHjPo9MJvBpzUKBgA-101" value="insights sections" style="rounded=0;whiteSpace=wrap;html=1;" parent="1" vertex="1">
          <mxGeometry x="1300" y="400" width="120" height="60" as="geometry" />
        </mxCell>
        <mxCell id="0APCHjPo9MJvBpzUKBgA-103" value="Order Now Section" style="rounded=0;whiteSpace=wrap;html=1;" parent="1" vertex="1">
          <mxGeometry x="1300" y="480" width="120" height="60" as="geometry" />
        </mxCell>
        <mxCell id="0APCHjPo9MJvBpzUKBgA-108" style="edgeStyle=orthogonalEdgeStyle;rounded=0;orthogonalLoop=1;jettySize=auto;html=1;exitX=0.5;exitY=1;exitDx=0;exitDy=0;entryX=0;entryY=0.5;entryDx=0;entryDy=0;" parent="1" source="0APCHjPo9MJvBpzUKBgA-105" target="0APCHjPo9MJvBpzUKBgA-107" edge="1">
          <mxGeometry relative="1" as="geometry" />
        </mxCell>
        <mxCell id="0APCHjPo9MJvBpzUKBgA-110" style="edgeStyle=orthogonalEdgeStyle;rounded=0;orthogonalLoop=1;jettySize=auto;html=1;entryX=0;entryY=0.5;entryDx=0;entryDy=0;" parent="1" source="0APCHjPo9MJvBpzUKBgA-105" target="0APCHjPo9MJvBpzUKBgA-109" edge="1">
          <mxGeometry relative="1" as="geometry" />
        </mxCell>
        <mxCell id="0APCHjPo9MJvBpzUKBgA-112" style="edgeStyle=orthogonalEdgeStyle;rounded=0;orthogonalLoop=1;jettySize=auto;html=1;entryX=0;entryY=0.5;entryDx=0;entryDy=0;" parent="1" source="0APCHjPo9MJvBpzUKBgA-105" target="0APCHjPo9MJvBpzUKBgA-111" edge="1">
          <mxGeometry relative="1" as="geometry" />
        </mxCell>
        <mxCell id="0APCHjPo9MJvBpzUKBgA-114" style="edgeStyle=orthogonalEdgeStyle;rounded=0;orthogonalLoop=1;jettySize=auto;html=1;entryX=0;entryY=0.5;entryDx=0;entryDy=0;" parent="1" source="0APCHjPo9MJvBpzUKBgA-105" target="0APCHjPo9MJvBpzUKBgA-113" edge="1">
          <mxGeometry relative="1" as="geometry">
            <Array as="points">
              <mxPoint x="-350" y="510" />
            </Array>
          </mxGeometry>
        </mxCell>
        <mxCell id="0APCHjPo9MJvBpzUKBgA-119" style="edgeStyle=orthogonalEdgeStyle;rounded=0;orthogonalLoop=1;jettySize=auto;html=1;entryX=0;entryY=0.5;entryDx=0;entryDy=0;" parent="1" source="0APCHjPo9MJvBpzUKBgA-105" target="0APCHjPo9MJvBpzUKBgA-118" edge="1">
          <mxGeometry relative="1" as="geometry">
            <Array as="points">
              <mxPoint x="-350" y="590" />
            </Array>
          </mxGeometry>
        </mxCell>
        <mxCell id="0APCHjPo9MJvBpzUKBgA-121" style="edgeStyle=orthogonalEdgeStyle;rounded=0;orthogonalLoop=1;jettySize=auto;html=1;entryX=0;entryY=0.5;entryDx=0;entryDy=0;" parent="1" source="0APCHjPo9MJvBpzUKBgA-105" target="0APCHjPo9MJvBpzUKBgA-120" edge="1">
          <mxGeometry relative="1" as="geometry" />
        </mxCell>
        <mxCell id="0APCHjPo9MJvBpzUKBgA-105" value="Home Page" style="rounded=0;whiteSpace=wrap;html=1;" parent="1" vertex="1">
          <mxGeometry x="-410" y="160" width="120" height="60" as="geometry" />
        </mxCell>
        <mxCell id="0APCHjPo9MJvBpzUKBgA-107" value="Slider Cover" style="rounded=0;whiteSpace=wrap;html=1;" parent="1" vertex="1">
          <mxGeometry x="-320" y="240" width="120" height="60" as="geometry" />
        </mxCell>
        <mxCell id="0APCHjPo9MJvBpzUKBgA-126" style="edgeStyle=orthogonalEdgeStyle;rounded=0;orthogonalLoop=1;jettySize=auto;html=1;" parent="1" source="0APCHjPo9MJvBpzUKBgA-109" target="0APCHjPo9MJvBpzUKBgA-124" edge="1">
          <mxGeometry relative="1" as="geometry" />
        </mxCell>
        <mxCell id="0APCHjPo9MJvBpzUKBgA-109" value="Summery of Services" style="rounded=0;whiteSpace=wrap;html=1;" parent="1" vertex="1">
          <mxGeometry x="-320" y="320" width="120" height="60" as="geometry" />
        </mxCell>
        <mxCell id="0APCHjPo9MJvBpzUKBgA-125" style="edgeStyle=orthogonalEdgeStyle;rounded=0;orthogonalLoop=1;jettySize=auto;html=1;entryX=0;entryY=0.5;entryDx=0;entryDy=0;" parent="1" source="0APCHjPo9MJvBpzUKBgA-111" target="0APCHjPo9MJvBpzUKBgA-124" edge="1">
          <mxGeometry relative="1" as="geometry" />
        </mxCell>
        <mxCell id="0APCHjPo9MJvBpzUKBgA-111" value="summery about company" style="rounded=0;whiteSpace=wrap;html=1;" parent="1" vertex="1">
          <mxGeometry x="-320" y="400" width="120" height="60" as="geometry" />
        </mxCell>
        <mxCell id="0APCHjPo9MJvBpzUKBgA-113" value="Gallery for latest work" style="rounded=0;whiteSpace=wrap;html=1;" parent="1" vertex="1">
          <mxGeometry x="-320" y="480" width="120" height="60" as="geometry" />
        </mxCell>
        <mxCell id="0APCHjPo9MJvBpzUKBgA-128" style="edgeStyle=orthogonalEdgeStyle;rounded=0;orthogonalLoop=1;jettySize=auto;html=1;entryX=0;entryY=0.65;entryDx=0;entryDy=0;entryPerimeter=0;" parent="1" source="0APCHjPo9MJvBpzUKBgA-115" target="0APCHjPo9MJvBpzUKBgA-116" edge="1">
          <mxGeometry relative="1" as="geometry" />
        </mxCell>
        <mxCell id="0APCHjPo9MJvBpzUKBgA-129" style="edgeStyle=orthogonalEdgeStyle;rounded=0;orthogonalLoop=1;jettySize=auto;html=1;entryX=0;entryY=0.5;entryDx=0;entryDy=0;" parent="1" source="0APCHjPo9MJvBpzUKBgA-115" target="0APCHjPo9MJvBpzUKBgA-117" edge="1">
          <mxGeometry relative="1" as="geometry" />
        </mxCell>
        <mxCell id="0APCHjPo9MJvBpzUKBgA-115" value="Our&amp;nbsp; Work" style="rounded=0;whiteSpace=wrap;html=1;" parent="1" vertex="1">
          <mxGeometry x="1480" y="150" width="120" height="60" as="geometry" />
        </mxCell>
        <mxCell id="0APCHjPo9MJvBpzUKBgA-116" value="small Cover" style="rounded=0;whiteSpace=wrap;html=1;" parent="1" vertex="1">
          <mxGeometry x="1560" y="240" width="120" height="60" as="geometry" />
        </mxCell>
        <mxCell id="0APCHjPo9MJvBpzUKBgA-117" value="n-cards contain images and description&amp;nbsp;" style="rounded=0;whiteSpace=wrap;html=1;" parent="1" vertex="1">
          <mxGeometry x="1560" y="320" width="120" height="60" as="geometry" />
        </mxCell>
        <mxCell id="0APCHjPo9MJvBpzUKBgA-118" value="contact us form" style="rounded=0;whiteSpace=wrap;html=1;" parent="1" vertex="1">
          <mxGeometry x="-320" y="560" width="120" height="60" as="geometry" />
        </mxCell>
        <mxCell id="0APCHjPo9MJvBpzUKBgA-120" value="our important clients" style="rounded=0;whiteSpace=wrap;html=1;" parent="1" vertex="1">
          <mxGeometry x="-320" y="640" width="120" height="60" as="geometry" />
        </mxCell>
        <mxCell id="0APCHjPo9MJvBpzUKBgA-122" value="" style="group" parent="1" vertex="1" connectable="0">
          <mxGeometry x="-160" y="360" width="120" height="60" as="geometry" />
        </mxCell>
        <mxCell id="0APCHjPo9MJvBpzUKBgA-123" value="Image&amp;nbsp;" style="rounded=0;whiteSpace=wrap;html=1;" parent="0APCHjPo9MJvBpzUKBgA-122" vertex="1">
          <mxGeometry x="70" width="50" height="60" as="geometry" />
        </mxCell>
        <mxCell id="0APCHjPo9MJvBpzUKBgA-124" value="Text&amp;nbsp;" style="rounded=0;whiteSpace=wrap;html=1;" parent="0APCHjPo9MJvBpzUKBgA-122" vertex="1">
          <mxGeometry width="70" height="60" as="geometry" />
        </mxCell>
      </root>
    </mxGraphModel>
  </diagram>
</mxfile>
